<?xml version="1.0" encoding="iso-8859-1"?>
<!-- Generator: Adobe Illustrator 19.0.0, SVG Export Plug-In . SVG Version: 6.00 Build 0)  -->
<svg version="1.1" id="Capa_1" xmlns="http://www.w3.org/2000/svg" xmlns:xlink="http://www.w3.org/1999/xlink" x="0px" y="0px"
	 viewBox="0 0 512 512" style="enable-background:new 0 0 512 512;" xml:space="preserve">
<path style="fill:#D9D9D9;" d="M510.425,235.446L159.326,373.828l11.625,32.296l129.35,101.886
	C419.826,486.947,512,380.599,512,255.124C512,248.426,510.94,242.012,510.425,235.446z"/>
<path style="fill:#FE9923;" d="M464.44,107.369l-352.876,135.56c3.411,9.474,50.309,137.975,47.761,130.899
	c30.311,11.025,62.807,17.296,96.674,17.296c78.647,0,152.874-31.333,207.191-88.242c19.18-20.09,34.874-43.499,47.234-67.436
	C506.559,186.081,490.4,143.706,464.44,107.369z"/>
<path style="fill:#6E77E5;" d="M442.493,80.685C395.953,31.224,329.114,0.124,256,0.124c-26.263,0-51.465,4.329-75.32,11.739
	l179.429,226.804c44.625-27.524,80.691-72.545,104.332-131.298C457.728,97.972,450.389,89.075,442.493,80.685z"/>
<path style="fill:#D9D9D9;" d="M294.965,83.898c-31.593-34.85-71.169-58.916-114.285-72.036
	c-45.665,14.182-90.664,42.55-122.855,81.786l39.939,110.945l13.801,38.335c47.038,18.232,91.837,27.678,131.941,27.678
	c43.863,0,84.197-11.943,116.603-31.941C356.638,181.9,334.972,128.02,294.965,83.898z"/>
<path style="fill:#FEA832;" d="M57.825,93.649C22.723,136.426,0,193.71,0,255.124c0,89.568,46.523,170.063,116.098,215.506
	l88.072-314.239C172.524,130.349,125.486,106.093,57.825,93.649z"/>
<path style="fill:#7986E8;" d="M241,361.124c0-51.13,24.542-88.982,31.245-104.535c-3.052-3.689-9.517-52.01-68.075-100.197
	C135.209,199.253,90,276.293,90,361.124c0,38.174,9.238,76.275,26.098,109.506c51.415,33.587,117.843,49.067,184.203,37.379
	C262.953,469.314,241,416.191,241,361.124z"/>
<g>
</g>
<g>
</g>
<g>
</g>
<g>
</g>
<g>
</g>
<g>
</g>
<g>
</g>
<g>
</g>
<g>
</g>
<g>
</g>
<g>
</g>
<g>
</g>
<g>
</g>
<g>
</g>
<g>
</g>
</svg>
